# xmcd
#
# Track frame offsets:
#	150
#	8139
#	31134
#	42457
#	53965
#	82105
#	118152
#	154097
#	183848
#	217007
#	241467
#
# Disc length: 4062 seconds
# Revision: 0
# Processed by: cddbd v1.5.2PL0 Copyright (c) Steve Scherf et al.
# Submitted via: dBpowerAMP V12.0
#
DISCID=930fdc0b
DTITLE=Erja Lyytinen - Live in London
DYEAR=2015
DGENRE=Blues
TTITLE0=It's a Blessing
TTITLE1=Let it Shine
TTITLE2=Person to Person
TTITLE3=Hand in Hand
TTITLE4=Grip of the Blues
TTITLE5=Change of Season
TTITLE6=Everything's Fine
TTITLE7=Hold on Together
TTITLE8=The Sky is Crying
TTITLE9=It Hurts Me Too
TTITLE10=Dust My Broom
EXTD=
EXTT0=
EXTT1=
EXTT2=
EXTT3=
EXTT4=
EXTT5=
EXTT6=
EXTT7=
EXTT8=
EXTT9=
EXTT10=
PLAYORDER=
